<?xml version="1.0" encoding="UTF-8"?>
<svg width="460px" height="345px" viewBox="0 0 460 345" version="1.1" xmlns="http://www.w3.org/2000/svg" xmlns:xlink="http://www.w3.org/1999/xlink">
    <!-- Generator: Sketch 40 (33762) - http://www.bohemiancoding.com/sketch -->
    <title>Group 4</title>
    <desc>Created with Sketch.</desc>
    <defs>
        <rect id="path-1" x="38.6571429" y="0" width="87.215457" height="77.3298214" rx="6"></rect>
        <mask id="mask-2" maskContentUnits="userSpaceOnUse" maskUnits="objectBoundingBox" x="0" y="0" width="87.215457" height="77.3298214" fill="white">
            <use xlink:href="#path-1"></use>
        </mask>
        <rect id="path-3" x="39.1689156" y="131.544621" width="87.215457" height="77.3298214" rx="6"></rect>
        <mask id="mask-4" maskContentUnits="userSpaceOnUse" maskUnits="objectBoundingBox" x="0" y="0" width="87.215457" height="77.3298214" fill="white">
            <use xlink:href="#path-3"></use>
        </mask>
        <rect id="path-5" x="202.927954" y="131.544621" width="87.215457" height="77.3298214" rx="6"></rect>
        <mask id="mask-6" maskContentUnits="userSpaceOnUse" maskUnits="objectBoundingBox" x="0" y="0" width="87.215457" height="77.3298214" fill="white">
            <use xlink:href="#path-5"></use>
        </mask>
        <rect id="path-7" x="368.915606" y="131.544621" width="87.215457" height="77.3298214" rx="6"></rect>
        <mask id="mask-8" maskContentUnits="userSpaceOnUse" maskUnits="objectBoundingBox" x="0" y="0" width="87.215457" height="77.3298214" fill="white">
            <use xlink:href="#path-7"></use>
        </mask>
        <rect id="path-9" x="153.405556" y="267.440956" width="87.215457" height="77.3298214" rx="6"></rect>
        <mask id="mask-10" maskContentUnits="userSpaceOnUse" maskUnits="objectBoundingBox" x="0" y="0" width="87.215457" height="77.3298214" fill="white">
            <use xlink:href="#path-9"></use>
        </mask>
        <rect id="path-11" x="19.8" y="115" width="454.909922" height="110.471173" rx="4"></rect>
        <mask id="mask-12" maskContentUnits="userSpaceOnUse" maskUnits="objectBoundingBox" x="-2" y="-2" width="458.909922" height="114.471173">
            <rect x="17.8" y="113" width="458.909922" height="114.471173" fill="white"></rect>
            <use xlink:href="#path-11" fill="black"></use>
        </mask>
    </defs>
    <g id="Page-1" stroke="none" stroke-width="1" fill="none" fill-rule="evenodd">
        <g id="Desktop" transform="translate(-29.000000, -25.000000)">
            <g id="Group-4" transform="translate(12.000000, 25.000000)">
                <g id="Group-3">
                    <path d="M96.2956829,58.2563337 L89.826102,58.2563337 L88.0146194,58.2563337 L67.3119604,58.2563337 L67.3119604,37.5170321 L96.2956829,37.5170321 L96.2956829,58.2563337 Z M96.2956829,29.2213115 L67.3119604,29.2213115 C65.0139652,29.2213115 63.1714286,31.0878486 63.1714286,33.3691718 L63.1714286,58.2563337 C63.1714286,60.5376569 65.0139652,62.404194 67.3119604,62.404194 L88.0146194,62.404194 L90.9895914,62.404194 L96.2956829,62.404194 C98.5729754,62.404194 100.436215,60.5376569 100.436215,58.2563337 L100.436215,33.3691718 C100.436215,31.0878486 98.5936781,29.2213115 96.2956829,29.2213115 L96.2956829,29.2213115 Z" id="Page-1" fill="#6F6F6F"></path>
                    <use id="Rectangle-11-Copy-2" stroke="#979797" mask="url(#mask-2)" stroke-width="4" opacity="0.27891791" xlink:href="#path-1"></use>
                    <use id="Rectangle-11-Copy-3" stroke="#979797" mask="url(#mask-4)" stroke-width="4" opacity="0.27891791" xlink:href="#path-3"></use>
                    <use id="Rectangle-11-Copy-4" stroke="#979797" mask="url(#mask-6)" stroke-width="4" opacity="0.27891791" xlink:href="#path-5"></use>
                    <use id="Rectangle-11-Copy-5" stroke="#979797" mask="url(#mask-8)" stroke-width="4" opacity="0.27891791" xlink:href="#path-7"></use>
                    <use id="Rectangle-11-Copy-2" stroke="#979797" mask="url(#mask-10)" stroke-width="4" opacity="0.27891791" xlink:href="#path-9"></use>
                    <g id="node_template" transform="translate(58.990610, 140.224499)">
                        <g id="Layer_1">
                            <polygon id="Shape" points="0 0.441884694 42.8148607 0.441884694 42.8148607 42.8628153 0 42.8628153"></polygon>
                            <path d="M14.2716202,55.0281503 L28.5432405,55.0281503 L28.5432405,23.2124524 L14.2716202,23.2124524 L14.2716202,55.0281503 L14.2716202,55.0281503 Z M21.4074304,49.725534 C20.4221355,49.725534 19.6234778,48.9341185 19.6234778,47.9579952 C19.6234778,46.9817659 20.4221355,46.1904565 21.4074304,46.1904565 C22.3927252,46.1904565 23.1913829,46.9817659 23.1913829,47.9579952 C23.1913829,48.9341185 22.3927252,49.725534 21.4074304,49.725534 L21.4074304,49.725534 Z M17.8395253,28.5150687 L24.9753354,28.5150687 L24.9753354,30.2826075 L17.8395253,30.2826075 L17.8395253,28.5150687 L17.8395253,28.5150687 Z M17.8395253,32.0501463 L24.9753354,32.0501463 L24.9753354,33.817685 L17.8395253,33.817685 L17.8395253,32.0501463 L17.8395253,32.0501463 Z" id="Shape" fill="#6F6F6F"></path>
                        </g>
                    </g>
                    <g id="node_template-copy" transform="translate(231.578263, 158.134335)">
                        <g id="Layer_1">
                            <polygon id="Shape" points="0 0.441884694 42.8148607 0.441884694 42.8148607 42.8628153 0 42.8628153"></polygon>
                            <path d="M9.17151376,37.1183143 L23.443134,37.1183143 L23.443134,5.30261633 L9.17151376,5.30261633 L9.17151376,37.1183143 L9.17151376,37.1183143 Z M16.3073239,31.815698 C15.3220291,31.815698 14.5233713,31.0242825 14.5233713,30.0481592 C14.5233713,29.0719298 15.3220291,28.2806204 16.3073239,28.2806204 C17.2926187,28.2806204 18.0912764,29.0719298 18.0912764,30.0481592 C18.0912764,31.0242825 17.2926187,31.815698 16.3073239,31.815698 L16.3073239,31.815698 Z M12.7394188,10.6052327 L19.8752289,10.6052327 L19.8752289,12.3727714 L12.7394188,12.3727714 L12.7394188,10.6052327 L12.7394188,10.6052327 Z M12.7394188,14.1403102 L19.8752289,14.1403102 L19.8752289,15.907849 L12.7394188,15.907849 L12.7394188,14.1403102 L12.7394188,14.1403102 Z" id="Shape" fill="#6F6F6F"></path>
                        </g>
                    </g>
                    <g id="db_template" transform="translate(395.080243, 160.830025)" fill="#6F6F6F">
                        <g id="Layer_4">
                            <g id="Group">
                                <path d="M17.4430914,0.118361972 C7.96039262,0.118361972 0.301289761,2.4777106 0.301289761,5.56301266 L0.301289761,9.91873322 C0.301289761,12.8225469 7.96039262,15.3633839 17.4430914,15.3633839 C26.9257902,15.3633839 34.584893,13.0040353 34.584893,9.91873322 L34.584893,5.56301266 C34.584893,2.4777106 26.7434306,0.118361972 17.4430914,0.118361972 L17.4430914,0.118361972 Z" id="Shape"></path>
                                <path d="M17.4430914,18.448686 C7.96039262,18.448686 0.848368536,16.0893373 0.301289761,13.367012 L0.301289761,19.3561277 C0.301289761,22.2599414 7.96039262,24.8007784 17.4430914,24.8007784 C26.9257902,24.8007784 34.584893,22.4414298 34.584893,19.3561277 L34.584893,13.367012 C34.0378143,16.0893373 27.1081498,18.448686 17.4430914,18.448686 L17.4430914,18.448686 Z" id="Shape"></path>
                                <path d="M17.4430914,28.0675689 C7.96039262,28.0675689 0.848368536,25.7082202 0.301289761,22.9858949 L0.301289761,28.9750106 C0.301289761,31.8788243 7.96039262,34.4196613 17.4430914,34.4196613 C26.9257902,34.4196613 34.584893,32.0603127 34.584893,28.9750106 L34.584893,22.9858949 C34.0378143,25.7082202 27.1081498,28.0675689 17.4430914,28.0675689 L17.4430914,28.0675689 Z" id="Shape"></path>
                            </g>
                        </g>
                    </g>
                    <g id="apm_template" transform="translate(180.373762, 297.822526)" fill="#6F6F6F">
                        <g id="Layer_2">
                            <path d="M33.1146188,20.5170815 C32.3878234,19.7924164 31.2976301,19.2489176 30.2074369,19.0677513 L29.4806415,11.6399337 C30.2074369,11.4587674 30.7525335,10.9152685 31.2976301,10.552936 C33.2963177,8.56010687 33.2963177,5.29911378 31.2976301,3.30628466 C29.2989426,1.31345555 26.0283629,1.31345555 24.0296754,3.30628466 C23.4845788,3.84978351 23.121181,4.57444865 22.7577833,5.29911378 L10.2205614,4.21211608 C10.0388625,3.30628466 9.49376589,2.21928697 8.76697042,1.49462183 C6.76828286,-0.498207278 3.49770322,-0.498207278 1.49901567,1.49462183 C-0.499671889,3.48745095 -0.499671889,6.74844404 1.49901567,8.74127315 C2.40751001,9.82827085 3.86110096,10.3717697 5.13299304,10.3717697 L9.31206702,25.0462386 C8.94866929,25.2274049 8.58527155,25.5897375 8.40357268,25.7709038 C6.40488512,27.7637329 6.40488512,31.024726 8.40357268,33.0175551 C10.4022602,35.0103842 13.6728399,35.0103842 15.6715274,33.0175551 C16.7617206,31.9305574 17.3068172,30.6623934 17.1251184,29.2130631 L24.9381697,26.8579015 C25.1198686,27.220234 25.3015675,27.5825666 25.6649652,27.7637329 C27.6636528,29.756562 30.9342324,29.756562 32.93292,27.7637329 C35.1133064,25.7709038 35.1133064,22.5099107 33.1146188,20.5170815 L33.1146188,20.5170815 Z M25.6649652,20.5170815 C24.574772,21.6040792 24.2113743,22.8722432 24.2113743,24.3215735 L16.3983229,26.6767352 C16.216624,26.3144026 16.0349252,25.95207 15.6715274,25.7709038 C14.5813342,24.6839061 13.3094421,24.3215735 11.8558512,24.3215735 L7.85847607,9.64710457 C8.22187381,9.46593829 8.58527155,9.10360572 8.76697042,8.92243944 C9.31206702,8.37894059 9.67546476,7.65427546 10.0388625,6.92961032 L22.5760844,7.83544174 C22.7577833,8.92243944 23.3028799,9.82827085 24.0296754,10.552936 C24.7564709,11.2776011 25.8466641,11.8211 26.7551584,12.0022662 L27.4819539,19.4300838 C26.9368573,19.6112501 26.2100618,19.9735827 25.6649652,20.5170815 L25.6649652,20.5170815 Z" id="Shape"></path>
                        </g>
                    </g>
                    <g id="node_js" transform="translate(102.284982, 180.512295)">
                        <g id="Layer_1">
                            <g id="Group">
                                <path d="M17.9830722,34.2096695 C8.91909428,34.2096695 1.54542027,26.870493 1.54542027,17.8505496 C1.54542027,8.82987552 8.91909428,1.49142973 17.9830722,1.49142973 C27.0463158,1.49142973 34.4207241,8.82987552 34.4207241,17.8505496 C34.4207241,26.870493 27.0463158,34.2096695 17.9830722,34.2096695 L17.9830722,34.2096695 Z" id="Shape" fill="#82BB22"></path>
                                <path d="M17.9830722,2.98285947 C26.2205031,2.98285947 32.9221348,9.65247359 32.9221348,17.8505496 C32.9221348,26.0486257 26.2205031,32.7182398 17.9830722,32.7182398 C9.74564124,32.7182398 3.04400961,26.0486257 3.04400961,17.8505496 C3.04400961,9.65247359 9.74564124,2.98285947 17.9830722,2.98285947 L17.9830722,2.98285947 Z M17.9830722,0 C8.07715682,0 0.0468309172,7.99196046 0.0468309172,17.8505496 C0.0468309172,27.7091388 8.07715682,35.7010993 17.9830722,35.7010993 C27.8889876,35.7010993 35.9193135,27.7091388 35.9193135,17.8505496 C35.9193135,7.99196046 27.8889876,0 17.9830722,0 L17.9830722,0 L17.9830722,0 Z" id="Shape" fill="#FFFFFF"></path>
                            </g>
                            <path d="M24.0306745,14.9497635 C24.0306745,14.717011 23.9076103,14.5031102 23.7057503,14.3877928 L18.3254999,11.3062305 C18.2344905,11.2529865 18.1324965,11.2252757 18.0292737,11.2210699 L17.9736461,11.2210699 C17.8708278,11.2252757 17.7688638,11.2529716 17.6765507,11.3062305 L12.2962703,14.3877928 C12.0957141,14.5031102 11.9709715,14.717011 11.9709715,14.9497635 L11.9827954,23.2474671 C11.9827954,23.3628143 12.0430387,23.4701674 12.1450326,23.5267672 C12.2448837,23.5863349 12.3683374,23.5863349 12.4677988,23.5267672 L15.6653089,21.7045681 C15.8675586,21.5850599 15.9906227,21.374112 15.9906227,21.1434624 L15.9906227,17.2667891 C15.9906227,17.035707 16.1136419,16.8218062 16.3150673,16.7069362 L17.6765807,15.9264711 C17.7781101,15.8681562 17.8889608,15.83964 18.0023141,15.83964 C18.1131198,15.83964 18.2269077,15.8681562 18.3255148,15.9264711 L19.6865936,16.7069362 C19.888019,16.8218062 20.0114728,17.0357219 20.0114728,17.2667891 L20.0114728,21.1434624 C20.0114728,21.374112 20.1362154,21.5863425 20.3372062,21.7045681 L23.5338471,23.5267672 C23.6341327,23.5863349 23.7593099,23.5863349 23.8587263,23.5267672 C23.9577531,23.4701674 24.0201544,23.3628143 24.0201544,23.2474671 L24.0306745,14.9497635 L24.0306745,14.9497635 Z" id="Shape" fill="#FFFFFF"></path>
                        </g>
                    </g>
                    <use id="Rectangle-11" stroke="#979797" mask="url(#mask-12)" stroke-width="4" opacity="0.861473881" xlink:href="#path-11"></use>
                    <rect id="Rectangle" fill="#FFFFFF" x="203.657143" y="107.459016" width="85.6297214" height="15.7815962"></rect>
                    <text id="Sample-App" font-family="HelveticaNeue-Bold, Helvetica Neue" font-size="13" font-weight="bold" fill="#818181">
                        <tspan x="209.244882" y="117.631148">Sample App</tspan>
                    </text>
                    <text id="Browser" font-family="HelveticaNeue-Medium, Helvetica Neue" font-size="11" font-weight="400" fill="#AAAAAA">
                        <tspan x="60.4683825" y="21.3688525">Browser</tspan>
                    </text>
                    <text id="Controller" font-family="HelveticaNeue-Medium, Helvetica Neue" font-size="11" font-weight="400" fill="#AAAAAA">
                        <tspan x="171.949785" y="288.357059">Controller</tspan>
                    </text>
                    <text id="MYSQL" font-family="HelveticaNeue-Medium, Helvetica Neue" font-size="11" font-weight="400" fill="#AAAAAA">
                        <tspan x="393.961702" y="151.518102">MYSQL</tspan>
                    </text>
                    <text id="Java-Node" font-family="HelveticaNeue-Medium, Helvetica Neue" font-size="11" font-weight="400" fill="#AAAAAA">
                        <tspan x="220.50424" y="152.393443">Java Node</tspan>
                    </text>
                    <text id="Node-JS-node" font-family="HelveticaNeue-Medium, Helvetica Neue" font-size="11" font-weight="400" fill="#AAAAAA">
                        <tspan x="47.5060119" y="152.460725">Node JS node</tspan>
                    </text>
                    <g id="Group-2" transform="translate(264.000000, 180.040984)">
                        <g id="node_js-copy" transform="translate(0.455157, 0.399707)">
                            <g id="Layer_1">
                                <g id="Group">
                                    <path d="M18.3350677,34.8792798 C9.09367407,34.8792798 1.57566988,27.3964483 1.57566988,18.1999512 C1.57566988,9.00270896 9.09367407,1.52062255 18.3350677,1.52062255 C27.5757126,1.52062255 35.0944655,9.00270896 35.0944655,18.1999512 C35.0944655,27.3964483 27.5757126,34.8792798 18.3350677,34.8792798 L18.3350677,34.8792798 Z" id="Shape" fill="#0090D8"></path>
                                    <path d="M18.3350677,3.0412451 C26.7337357,3.0412451 33.5665431,9.84140833 33.5665431,18.1999512 C33.5665431,26.558494 26.7337357,33.3586572 18.3350677,33.3586572 C9.93639962,33.3586572 3.10359218,26.558494 3.10359218,18.1999512 C3.10359218,9.84140833 9.93639962,3.0412451 18.3350677,3.0412451 L18.3350677,3.0412451 Z M18.3350677,0 C8.23525676,0 0.047747572,8.1483928 0.047747572,18.1999512 C0.047747572,28.2515095 8.23525676,36.3999023 18.3350677,36.3999023 C28.4348786,36.3999023 36.6223878,28.2515095 36.6223878,18.1999512 C36.6223878,8.1483928 28.4348786,0 18.3350677,0 L18.3350677,0 L18.3350677,0 Z" id="Shape" fill="#FFFFFF"></path>
                                </g>
                            </g>
                        </g>
                        <g id="Page-1" transform="translate(7.392751, 14.208604)" fill="#FFFFFF">
                            <path d="M0.956533047,9.78024971 C0.590389179,9.78024971 0.272684577,9.74361386 0.000569873725,9.66611495 L0.000569873725,8.3331337 C0.278383315,8.40076911 0.533401806,8.43599589 0.762775981,8.43599589 C1.11894706,8.43599589 1.37254087,8.32749742 1.52640677,8.10768233 C1.67884799,7.88927631 1.75578095,7.54687203 1.75578095,7.08187857 L1.75578095,-0.000112725687 L3.37707169,-0.000112725687 L3.37707169,7.07201507 C3.37707169,7.95409358 3.17334184,8.62622049 2.76588212,9.0883958 C2.35699773,9.54916205 1.75435626,9.78024971 0.956533047,9.78024971" id="Fill-1"></path>
                            <path d="M8.41447048,4.88020499 L7.79758218,4.90134106 C7.33455977,4.9140227 6.98978617,4.99715789 6.76326136,5.14933757 C6.53673656,5.30010818 6.4241865,5.53119584 6.4241865,5.84260055 C6.4241865,6.28645794 6.68062967,6.5076821 7.19779008,6.5076821 C7.56678332,6.5076821 7.86169297,6.40341084 8.08251904,6.19345925 C8.30334511,5.98209859 8.41447048,5.70310251 8.41447048,5.35506195 L8.41447048,4.88020499 Z M8.88604099,7.55744006 L8.57688449,6.77258747 L8.53414396,6.77258747 C8.26630331,7.10653732 7.99133924,7.33762497 7.70640238,7.46725952 C7.4228902,7.59689406 7.05247228,7.66171133 6.5965733,7.66171133 C6.03524768,7.66171133 5.59359554,7.50248629 5.27019221,7.1854453 C4.94821355,6.8684043 4.78722422,6.41750155 4.78722422,5.83132798 C4.78722422,5.21838206 5.00377624,4.76607024 5.43830495,4.47439252 C5.87140899,4.1827148 6.52676377,4.0220807 7.40151994,3.99108114 L8.41447048,3.96008157 L8.41447048,3.70644878 C8.41447048,3.1202752 8.11243741,2.82718842 7.50552189,2.82718842 C7.03822544,2.82718842 6.48972198,2.96809553 5.85858683,3.2470916 L5.33145363,2.18183386 C6.00390463,1.8337933 6.74901452,1.65906848 7.568208,1.65906848 C8.35178437,1.65906848 8.95300115,1.82815701 9.37043366,2.16633407 C9.78929084,2.50310207 9.99871944,3.01741301 9.99871944,3.70644878 L9.99871944,7.55744006 L8.88604099,7.55744006 Z" id="Fill-3"></path>
                            <path d="M13.0294504,7.55800369 L10.8040935,1.77799408 L12.4709741,1.77799408 L13.5993241,5.07099322 C13.7246963,5.48807826 13.803054,5.88402724 13.834397,6.25461294 L13.8671647,6.25461294 C13.884261,5.9248903 13.9611939,5.53035039 14.100813,5.07099322 L15.2248889,1.77799408 L16.8917695,1.77799408 L14.664988,7.55800369 L13.0294504,7.55800369 Z" id="Fill-5"></path>
                            <path d="M20.9682188,4.88020499 L20.3527551,4.90134106 C19.8883081,4.9140227 19.5435345,4.99715789 19.3184343,5.14933757 C19.0919095,5.30010818 18.9793595,5.53119584 18.9793595,5.84260055 C18.9793595,6.28645794 19.234378,6.5076821 19.7515384,6.5076821 C20.1205316,6.5076821 20.4154413,6.40341084 20.637692,6.19345925 C20.8585181,5.98209859 20.9682188,5.70310251 20.9682188,5.35506195 L20.9682188,4.88020499 Z M21.4397893,7.55744006 L21.1306328,6.77258747 L21.0893169,6.77258747 C20.8200516,7.10653732 20.5450875,7.33762497 20.2615753,7.46725952 C19.9780632,7.59689406 19.6076452,7.66171133 19.1517463,7.66171133 C18.588996,7.66171133 18.1473438,7.50248629 17.8253652,7.1854453 C17.5033865,6.8684043 17.3423972,6.41750155 17.3423972,5.83132798 C17.3423972,5.21838206 17.5589492,4.76607024 17.9934779,4.47439252 C18.426582,4.1827148 19.0819367,4.0220807 19.9552682,3.99108114 L20.9682188,3.96008157 L20.9682188,3.70644878 C20.9682188,3.1202752 20.6661857,2.82718842 20.0592702,2.82718842 C19.5933984,2.82718842 19.0434703,2.96809553 18.4137598,3.2470916 L17.8852019,2.18183386 C18.5590776,1.8337933 19.3041875,1.65906848 20.1219563,1.65906848 C20.9069573,1.65906848 21.5081741,1.82815701 21.9256066,2.16633407 C22.3444638,2.50310207 22.5524677,3.01741301 22.5524677,3.70644878 L22.5524677,7.55744006 L21.4397893,7.55744006 Z" id="Fill-7"></path>
                        </g>
                    </g>
                    <path d="M168.3,23.0942623 L169.714286,24.5081967" id="Line" stroke="#979797" stroke-linecap="square"></path>
                    <path d="M377.614286,69.2827869 L379.028571,70.6967213" id="Line" stroke="#979797" stroke-linecap="square"></path>
                </g>
                <polyline id="Path-2" stroke="#82BB22" stroke-width="3" stroke-linejoin="round" opacity="0.36170709" points="120.685714 213.032787 120.685714 240.994361 190.157934 240.994361 190.157936 261.584472"></polyline>
                <polygon id="Triangle" fill="#ADADAD" points="77 124 87 124 82 130"></polygon>
                <polygon id="Triangle" fill="#ADADAD" transform="translate(195.086805, 170.051596) rotate(-91.000000) translate(-195.086805, -170.051596) " points="190.086805 167.051596 200.086805 167.051596 195.086805 173.051596"></polygon>
                <polygon id="Triangle-Copy-2" fill="#D2E7AF" transform="translate(190.000000, 262.000000) rotate(-360.000000) translate(-190.000000, -262.000000) " points="185 259 195 259 190 265"></polygon>
                <polygon id="Triangle-Copy-3" fill="#A3D7F1" transform="translate(203.000000, 262.000000) rotate(-360.000000) translate(-203.000000, -262.000000) " points="198 259 208 259 203 265"></polygon>
                <polygon id="Triangle-Copy" fill="#ADADAD" transform="translate(359.086805, 170.051596) rotate(-91.000000) translate(-359.086805, -170.051596) " points="354.086805 167.051596 364.086805 167.051596 359.086805 173.051596"></polygon>
                <polyline id="Path-2-Copy" stroke="#0090D8" stroke-width="3" stroke-linejoin="round" opacity="0.36170709" transform="translate(241.371429, 236.034338) scale(-1, 1) translate(-241.371429, -236.034338) " points="202.714286 213.032787 202.714286 240.994361 280.028571 240.994361 280.028571 259.035888"></polyline>
                <path d="M124.5,170.143443 L192.364955,170.143443" id="Path-3" stroke="#ADADAD" stroke-width="3" stroke-linejoin="round"></path>
                <path d="M288.5,170.143443 L356.422098,170.143443" id="Path-3-Copy" stroke="#ADADAD" stroke-width="3" stroke-linejoin="round"></path>
                <path d="M82.0285714,75.4098361 L82.0285714,128.22986" id="Path-3-Copy-2" stroke="#ADADAD" stroke-width="3" stroke-linejoin="round"></path>
            </g>
        </g>
    </g>
</svg>